<?xml version="1.0" encoding="utf-8"?>
<!-- Generator: Adobe Illustrator 23.0.3, SVG Export Plug-In . SVG Version: 6.00 Build 0)  -->
<svg version="1.1" id="Layer_1" xmlns:svg="http://www.w3.org/2000/svg"
	 xmlns="http://www.w3.org/2000/svg" xmlns:xlink="http://www.w3.org/1999/xlink" x="0px" y="0px" viewBox="0 0 1920 500"
	 style="enable-background:new 0 0 1920 500;" xml:space="preserve">
<style type="text/css">
	.st0{fill:#02024C;}
	.st1{fill:#009EE2;}
	.st2{opacity:0.56;fill:#241B6E;enable-background:new    ;}
	.st3{fill:#28126A;}
	.st4{fill:url(#SVGID_1_);}
	.st5{fill:url(#SVGID_2_);}
	.st6{opacity:0.1;fill:#FFFFFF;enable-background:new    ;}
	.st7{fill:#A787FA;}
	.st8{opacity:0.64;fill:#511EBA;enable-background:new    ;}
	.st9{fill:#FF9900;}
	.st10{fill:url(#SVGID_3_);}
	.st11{opacity:0.5;fill:url(#SVGID_4_);enable-background:new    ;}
	.st12{fill:url(#SVGID_5_);}
	.st13{opacity:0.5;fill:url(#SVGID_6_);enable-background:new    ;}
	.st14{fill:url(#SVGID_7_);}
	.st15{opacity:0.11;fill:#FF5800;enable-background:new    ;}
	.st16{opacity:0.29;fill:url(#SVGID_8_);enable-background:new    ;}
	.st17{opacity:0.28;fill:url(#SVGID_9_);enable-background:new    ;}
	.st18{fill:#FFC875;}
	.st19{fill:url(#SVGID_10_);}
	.st20{opacity:0.63;fill:url(#SVGID_11_);enable-background:new    ;}
	.st21{fill:none;}
	.st22{fill:url(#SVGID_12_);}
	.st23{fill:url(#SVGID_13_);}
	.st24{fill:url(#SVGID_14_);}
	.st25{fill:url(#SVGID_15_);}
	.st26{fill:url(#SVGID_16_);}
	.st27{fill:url(#SVGID_17_);}
	.st28{fill:url(#SVGID_18_);}
	.st29{fill:url(#SVGID_19_);}
	.st30{fill:url(#SVGID_20_);}
	.st31{fill:url(#SVGID_21_);}
	.st32{fill:url(#SVGID_22_);}
	.st33{fill:url(#SVGID_23_);}
	.st34{opacity:0.39;}
	.st35{fill:url(#SVGID_24_);}
	.st36{fill:url(#SVGID_25_);}
	.st37{fill:url(#SVGID_26_);}
	.st38{fill:url(#SVGID_27_);}
	.st39{fill:url(#SVGID_28_);}
	.st40{fill:url(#SVGID_29_);}
	.st41{fill:url(#SVGID_30_);}
	.st42{fill:url(#SVGID_31_);}
	.st43{fill:url(#SVGID_32_);}
	.st44{fill:url(#SVGID_33_);}
	.st45{fill:url(#SVGID_34_);}
	.st46{fill:url(#SVGID_35_);}
	.st47{opacity:0.22;}
	.st48{fill:url(#SVGID_36_);}
	.st49{fill:url(#SVGID_37_);}
	.st50{fill:url(#SVGID_38_);}
	.st51{fill:url(#SVGID_39_);}
	.st52{fill:url(#SVGID_40_);}
	.st53{fill:url(#SVGID_41_);}
	.st54{fill:url(#SVGID_42_);}
	.st55{fill:url(#SVGID_43_);}
	.st56{fill:url(#SVGID_44_);}
	.st57{fill:url(#SVGID_45_);}
	.st58{fill:url(#SVGID_46_);}
	.st59{fill:url(#SVGID_47_);}
	.st60{fill:url(#SVGID_50_);}
	.st61{fill:url(#SVGID_51_);}
	.st62{fill:url(#SVGID_52_);}
	.st63{fill:url(#SVGID_53_);}
	.st64{fill:url(#SVGID_54_);}
	.st65{fill:url(#SVGID_55_);}
	.st66{fill:url(#SVGID_56_);}
	.st67{fill:url(#SVGID_57_);}
	.st68{fill:url(#SVGID_58_);}
	.st69{fill:url(#SVGID_59_);}
	.st70{fill:url(#SVGID_60_);}
	.st71{fill:url(#SVGID_61_);}
	.st72{fill:url(#SVGID_62_);}
	.st73{fill:url(#SVGID_63_);}
	.st74{fill:url(#SVGID_64_);}
	.st75{fill:url(#circle513_1_);}
	.st76{fill:url(#path520_1_);}
	.st77{fill:url(#path527_1_);}
	
		.st78{fill:none;stroke:url(#path488_1_);stroke-width:1.999;stroke-miterlimit:10;stroke-dasharray:67.08,4.791,1.917,4.791,33.54,4.791;}
	.st79{fill:url(#circle513_2_);enable-background:new    ;}
	.st80{opacity:0.84;fill:url(#path520_2_);enable-background:new    ;}
	.st81{opacity:0.84;fill:url(#path527_2_);enable-background:new    ;}
	.st82{fill:url(#SVGID_65_);}
	.st83{fill:url(#SVGID_66_);}
	.st84{fill:url(#SVGID_67_);}
	.st85{fill:url(#SVGID_68_);}
	.st86{fill:url(#SVGID_69_);}
	.st87{fill:url(#SVGID_70_);}
	.st88{fill:url(#SVGID_71_);}
	.st89{fill:url(#SVGID_72_);}
	.st90{fill:url(#SVGID_73_);}
	.st91{fill:url(#SVGID_74_);}
	.st92{fill:url(#SVGID_75_);}
	.st93{fill:url(#SVGID_76_);}
	.st94{fill:url(#SVGID_77_);}
	.st95{fill:url(#SVGID_78_);}
	.st96{fill:url(#SVGID_79_);}
	.st97{fill:url(#SVGID_80_);}
	.st98{fill:url(#SVGID_81_);}
	.st99{fill:url(#SVGID_82_);}
	.st100{fill:url(#SVGID_83_);}
	.st101{fill:url(#SVGID_84_);}
	.st102{fill:url(#SVGID_85_);}
	.st103{opacity:0.54;}
	.st104{fill:url(#SVGID_86_);}
	.st105{fill:url(#SVGID_87_);}
	.st106{fill:url(#SVGID_88_);}
	.st107{fill:url(#SVGID_89_);}
	.st108{fill:url(#SVGID_90_);}
	.st109{fill:url(#SVGID_91_);}
	.st110{fill:url(#SVGID_92_);}
	.st111{fill:url(#SVGID_93_);}
	.st112{fill:url(#SVGID_94_);}
	.st113{fill:url(#SVGID_95_);}
	.st114{fill:url(#SVGID_96_);}
	.st115{fill:url(#SVGID_97_);}
	.st116{clip-path:url(#SVGID_99_);fill:#02024C;}
	.st117{clip-path:url(#SVGID_99_);}
	.st118{opacity:0.56;clip-path:url(#SVGID_99_);fill:#241B6E;enable-background:new    ;}
	.st119{fill:url(#path481_1_);}
	
		.st120{fill:none;stroke:url(#path488_2_);stroke-width:1.999;stroke-miterlimit:10;stroke-dasharray:67.08,4.791,1.917,4.791,33.54,4.791;}
	.st121{fill:url(#path497_1_);}
	.st122{fill:url(#path504_1_);}
	.st123{opacity:0.46;clip-path:url(#SVGID_99_);}
	.st124{fill:url(#path481_2_);}
	
		.st125{fill:none;stroke:url(#path488_3_);stroke-width:1.999;stroke-miterlimit:10;stroke-dasharray:67.08,4.791,1.917,4.791,33.54,4.791;}
	.st126{fill:url(#path497_2_);}
	.st127{fill:url(#path504_2_);}
	.st128{opacity:0.29;clip-path:url(#SVGID_99_);}
	.st129{fill:url(#path481_3_);}
	
		.st130{fill:none;stroke:url(#path488_4_);stroke-width:1.999;stroke-miterlimit:10;stroke-dasharray:67.08,4.791,1.917,4.791,33.54,4.791;}
	.st131{fill:url(#path497_3_);}
	.st132{fill:url(#path504_3_);}
	.st133{clip-path:url(#SVGID_101_);fill:#02024C;}
	.st134{clip-path:url(#SVGID_101_);}
	.st135{opacity:0.56;clip-path:url(#SVGID_101_);fill:#241B6E;enable-background:new    ;}
	.st136{fill:url(#e9q9ugz0s6q7_1_);}
	.st137{fill:url(#SVGID_102_);}
	.st138{fill:url(#e9q9ugz0s6q7_2_);}
	.st139{fill:url(#SVGID_103_);}
	.st140{opacity:0.4;}
	.st141{fill:url(#e9q9ugz0s6q7_3_);}
	.st142{fill:url(#SVGID_104_);}
	.st143{opacity:0.17;}
	.st144{fill:url(#e9q9ugz0s6q7_4_);}
	.st145{fill:url(#SVGID_105_);}
	.st146{fill:url(#e9q9ugz0s6q7_10_);}
	.st147{fill:url(#SVGID_106_);}
	.st148{clip-path:url(#SVGID_108_);}
	.st149{fill:url(#e9q9ugz0s6q11_2_);}
	.st150{clip-path:url(#SVGID_110_);}
	.st151{fill:url(#e9q9ugz0s6q16_2_);}
	.st152{clip-path:url(#SVGID_112_);}
	.st153{fill:url(#e9q9ugz0s6q21_2_);}
	.st154{fill:url(#SVGID_113_);enable-background:new    ;}
	.st155{clip-path:url(#SVGID_115_);}
	.st156{fill:url(#SVGID_116_);}
	.st157{fill:url(#SVGID_117_);}
	.st158{fill:url(#SVGID_118_);}
	.st159{fill:url(#SVGID_119_);}
	.st160{fill:url(#SVGID_120_);}
	.st161{fill-rule:evenodd;clip-rule:evenodd;fill:#A34302;}
	.st162{fill-rule:evenodd;clip-rule:evenodd;fill:#DF7C09;}
	.st163{fill-rule:evenodd;clip-rule:evenodd;fill:url(#SVGID_121_);}
	.st164{fill-rule:evenodd;clip-rule:evenodd;fill:url(#SVGID_122_);}
	.st165{fill-rule:evenodd;clip-rule:evenodd;fill:#FEFEFE;}
	.st166{opacity:0.22;fill-rule:evenodd;clip-rule:evenodd;fill:#BE4E01;enable-background:new    ;}
	.st167{fill-rule:evenodd;clip-rule:evenodd;fill:#364C62;}
	.st168{fill-rule:evenodd;clip-rule:evenodd;fill:#ECF0F1;}
	.st169{opacity:0.46;fill-rule:evenodd;clip-rule:evenodd;fill:#EAA416;enable-background:new    ;}
	.st170{fill-rule:evenodd;clip-rule:evenodd;fill:url(#SVGID_123_);}
	.st171{fill-rule:evenodd;clip-rule:evenodd;fill:url(#SVGID_124_);}
	.st172{fill-rule:evenodd;clip-rule:evenodd;fill:url(#SVGID_125_);}
	.st173{clip-path:url(#SVGID_127_);}
	.st174{fill:url(#SVGID_128_);}
	.st175{fill:url(#SVGID_129_);}
	.st176{fill:url(#SVGID_130_);}
	.st177{fill:url(#SVGID_131_);}
	.st178{fill:url(#SVGID_132_);}
	.st179{opacity:0.84;fill:url(#SVGID_133_);enable-background:new    ;}
	.st180{fill:url(#SVGID_134_);}
	.st181{fill:url(#SVGID_135_);}
	.st182{fill:url(#SVGID_136_);}
	.st183{clip-path:url(#SVGID_138_);}
	.st184{fill:url(#SVGID_139_);enable-background:new    ;}
	.st185{fill:url(#SVGID_140_);enable-background:new    ;}
	.st186{fill:url(#SVGID_141_);enable-background:new    ;}
	.st187{fill:url(#SVGID_142_);enable-background:new    ;}
	.st188{opacity:0.84;fill:url(#SVGID_143_);enable-background:new    ;}
	.st189{fill:url(#SVGID_144_);enable-background:new    ;}
	.st190{fill:url(#SVGID_145_);}
	.st191{fill:url(#SVGID_146_);}
	.st192{opacity:0.84;fill:url(#SVGID_147_);enable-background:new    ;}
	.st193{fill:url(#SVGID_148_);}
	.st194{fill:url(#SVGID_149_);}
	.st195{fill:url(#SVGID_150_);}
	.st196{fill:url(#SVGID_151_);}
	.st197{fill:url(#SVGID_152_);}
	.st198{opacity:0.84;fill:url(#SVGID_153_);enable-background:new    ;}
	.st199{fill:url(#SVGID_154_);}
	.st200{fill:url(#SVGID_155_);}
	.st201{fill:url(#SVGID_156_);}
	.st202{fill:url(#SVGID_157_);}
</style>
<g>
	<defs>
		<rect id="SVGID_98_" x="0" y="0" width="1920" height="500"/>
	</defs>
	<clipPath id="SVGID_1_">
		<use xlink:href="#SVGID_98_"  style="overflow:visible;"/>
	</clipPath>
	<rect x="0" y="0" style="clip-path:url(#SVGID_1_);fill:#02024C;" width="1920" height="500"/>
	<g id="g464_17_" style="clip-path:url(#SVGID_1_);">
		<g id="g462_17_">
			<g id="g460_17_">
				<path id="path378_17_" class="st1" d="M770.7,104.9c2.5,0,2.5-3.8,0-3.8C768.3,101.1,768.3,104.9,770.7,104.9"/>
				<path id="path380_17_" class="st1" d="M444.4,179.8c2.5,0,2.5-3.8,0-3.8C442,176.1,442,179.8,444.4,179.8"/>
				<path id="path382_17_" class="st1" d="M1273.1,124.4c0.9,0,0.9-1.5,0-1.5S1272.2,124.4,1273.1,124.4"/>
				<path id="path384_17_" class="st1" d="M1270.8,64.4c2.7,0,2.7-4.1,0-4.1C1268.1,60.3,1268.1,64.4,1270.8,64.4"/>
				<path id="path386_17_" class="st1" d="M1207.3,126c1,0,1-1.6,0-1.6S1206.1,126,1207.3,126"/>
				<path id="path388_17_" class="st1" d="M1044.3,62.7c2.9,0,2.9-4.4,0-4.4C1041.4,58.3,1041.4,62.7,1044.3,62.7"/>
				<path id="path390_17_" class="st1" d="M553.2,48.2c0.2,0,0.2-0.3,0-0.3C552.9,47.9,552.9,48.2,553.2,48.2"/>
				<path id="path392_17_" class="st1" d="M524.6,164.2c1.9,0,1.9-2.8,0-2.8C522.8,161.2,522.8,164.2,524.6,164.2"/>
				<path id="path394_17_" class="st1" d="M933.7,38.4c0,0.4,0,0.8,0.1,1.2c0,0.8,1.2,0.8,1.2,0c0-0.4,0-0.8,0.1-1.2
					C935.1,37.6,933.7,37.6,933.7,38.4"/>
				<path id="path396_17_" class="st1" d="M599.1,48.5c1.4,0,1.4-2.3,0-2.3S597.6,48.5,599.1,48.5"/>
				<path id="path398_17_" class="st1" d="M80.7,50c2.2,0,2.2-3.5,0-3.5C78.5,46.6,78.5,50,80.7,50"/>
				<path id="path400_17_" class="st1" d="M619.3,91.5c0.1-0.4,0.2-0.7,0.4-1.2c0.2-0.4-0.6-0.6-0.7-0.2c-0.1,0.4-0.2,0.7-0.2,1.2
					C618.6,91.7,619.2,91.8,619.3,91.5"/>
				<path id="path402_9_" class="st1" d="M1472.7,238.7c2.5,0,2.5-3.8,0-3.8C1470.3,234.9,1470.3,238.7,1472.7,238.7"/>
				<path id="path404_9_" class="st1" d="M1146.4,313.7c2.5,0,2.5-3.8,0-3.8C1144,309.9,1144,313.7,1146.4,313.7"/>
				<path id="path406_9_" class="st1" d="M1909.2,259.9c1,0,1-1.6,0-1.6C1908.2,258.2,1908.2,259.9,1909.2,259.9"/>
				<path id="path408_17_" class="st1" d="M1766.7,187c2.9,0,2.9-4.4,0-4.4C1763.8,182.5,1763.8,187,1766.7,187"/>
				<path id="path410_17_" class="st1" d="M1255.2,181.9c0.2,0,0.2-0.3,0-0.3C1255,181.6,1255,181.9,1255.2,181.9"/>
				<path id="path412_9_" class="st1" d="M1226.6,298c1.9,0,1.9-2.8,0-2.8C1224.8,295.1,1224.8,298,1226.6,298"/>
				<path id="path414_16_" class="st1" d="M1635.7,188.1c0,0.4,0,0.8,0.1,1.2c0,0.8,1.2,0.8,1.2,0c0-0.4,0-0.8,0.1-1.2
					C1637.2,187.3,1635.6,187.3,1635.7,188.1"/>
				<path id="path416_17_" class="st1" d="M1301.1,182.3c1.4,0,1.4-2.3,0-2.3C1299.6,180,1299.6,182.3,1301.1,182.3"/>
				<path id="path418_9_" class="st1" d="M1321.3,225.2c0.1-0.4,0.2-0.7,0.4-1.2c0.2-0.4-0.6-0.6-0.7-0.2c-0.1,0.4-0.2,0.7-0.2,1.2
					C1320.7,225.5,1321.2,225.7,1321.3,225.2"/>
				<path id="path420_17_" class="st1" d="M1781.8,46.5c2.5,0,2.5-3.8,0-3.8C1779.4,42.7,1779.4,46.5,1781.8,46.5"/>
				<path id="path422_17_" class="st1" d="M1486.7,121.5c2.5,0,2.5-3.8,0-3.8S1484.2,121.5,1486.7,121.5"/>
				<path id="path424_16_" class="st1" d="M1567,105.8c1.9,0,1.9-2.8,0-2.8C1565.1,102.9,1565.1,105.8,1567,105.8"/>
				<path id="path426_17_" class="st1" d="M1661.7,33c0.1-0.4,0.2-0.7,0.4-1.2c0.2-0.4-0.6-0.6-0.7-0.2c-0.1,0.4-0.2,0.7-0.2,1.2
					C1661,33.2,1661.5,33.5,1661.7,33"/>
				<path id="path428_17_" class="st1" d="M38.7,168.6c-2.5,0-2.5-3.8,0-3.8C41.1,164.8,41.1,168.6,38.7,168.6"/>
				<path id="path430_9_" class="st1" d="M365,243.6c-2.5,0-2.5-3.8,0-3.8S367.5,243.6,365,243.6"/>
				<path id="path432_9_" class="st1" d="M256.2,111.9c-0.2,0-0.2-0.3,0-0.3C256.4,111.5,256.4,111.9,256.2,111.9"/>
				<path id="path434_9_" class="st1" d="M284.8,227.9c-1.9,0-1.9-2.8,0-2.8S286.7,227.9,284.8,227.9"/>
				<path id="path436_9_" class="st1" d="M210.3,112.2c-1.4,0-1.4-2.3,0-2.3C211.8,110,211.8,112.2,210.3,112.2"/>
				<path id="path438_9_" class="st1" d="M190.1,155.2c-0.1-0.4-0.2-0.7-0.4-1.2c-0.2-0.4,0.6-0.6,0.7-0.2c0.1,0.4,0.2,0.7,0.2,1.2
					C190.7,155.4,190.2,155.6,190.1,155.2"/>
				<path id="path458_9_" class="st1" d="M245.6,85.4c2.1,0,2.1-3.3,0-3.3C243.4,82.1,243.4,85.4,245.6,85.4"/>
			</g>
		</g>
	</g>
	<g id="g464_16_" style="clip-path:url(#SVGID_1_);">
		<g id="g462_16_">
			<g id="g460_16_">
				<path id="path378_16_" class="st1" d="M771.1,325.1c2.5,0,2.5-3.8,0-3.8C768.6,321.3,768.6,325.1,771.1,325.1"/>
				<path id="path380_16_" class="st1" d="M437.9,400c2.5,0,2.5-3.8,0-3.8C435.5,396.2,435.5,400,437.9,400"/>
				<path id="path382_16_" class="st1" d="M1284.1,344.5c0.9,0,0.9-1.5,0-1.5C1283.1,343.1,1283.1,344.5,1284.1,344.5"/>
				<path id="path384_16_" class="st1" d="M1281.7,284.5c2.7,0,2.7-4.1,0-4.1S1278.9,284.5,1281.7,284.5"/>
				<path id="path386_16_" class="st1" d="M1216.8,346.2c1.1,0,1.1-1.6,0-1.6S1215.7,346.2,1216.8,346.2"/>
				<path id="path388_16_" class="st1" d="M1050.5,282.8c2.9,0,2.9-4.4,0-4.4C1047.5,278.4,1047.5,282.8,1050.5,282.8"/>
				<path id="path390_16_" class="st1" d="M549.1,268.3c0.2,0,0.2-0.3,0-0.3C548.8,268,548.8,268.3,549.1,268.3"/>
				<path id="path392_16_" class="st1" d="M519.9,384.4c1.9,0,1.9-2.8,0-2.8C518,381.4,518,384.4,519.9,384.4"/>
				<path id="path394_16_" class="st1" d="M937.5,258.6c0,0.4,0,0.8,0.1,1.2c0,0.8,1.3,0.8,1.3,0c0-0.4,0-0.8,0.1-1.2
					C939,257.7,937.5,257.7,937.5,258.6"/>
				<path id="path396_16_" class="st1" d="M595.8,268.6c1.5,0,1.5-2.3,0-2.3S594.4,268.6,595.8,268.6"/>
				<path id="path398_16_" class="st1" d="M66.6,270.1c2.2,0,2.2-3.5,0-3.5C64.4,266.8,64.4,270.1,66.6,270.1"/>
				<path id="path400_16_" class="st1" d="M616.5,311.6c0.1-0.4,0.2-0.7,0.4-1.2c0.2-0.4-0.6-0.6-0.7-0.2c-0.1,0.4-0.2,0.7-0.2,1.2
					C615.8,311.8,616.4,311.9,616.5,311.6"/>
				<path id="path408_16_" class="st1" d="M1788,407.2c2.9,0,2.9-4.4,0-4.4C1785.1,402.6,1785.1,407.2,1788,407.2"/>
				<path id="path410_16_" class="st1" d="M1265.8,402.1c0.2,0,0.2-0.3,0-0.3S1265.6,402.1,1265.8,402.1"/>
				<path id="path416_16_" class="st1" d="M1312.7,402.4c1.5,0,1.5-2.3,0-2.3C1311.1,400.1,1311.1,402.4,1312.7,402.4"/>
				<path id="path420_16_" class="st1" d="M1803.4,266.7c2.5,0,2.5-3.8,0-3.8C1801,262.9,1801,266.7,1803.4,266.7"/>
				<path id="path422_16_" class="st1" d="M1502.2,341.7c2.5,0,2.5-3.8,0-3.8S1499.6,341.7,1502.2,341.7"/>
				<path id="path426_16_" class="st1" d="M1680.8,253.2c0.1-0.4,0.2-0.7,0.4-1.2c0.2-0.4-0.6-0.6-0.7-0.2c-0.1,0.4-0.2,0.7-0.2,1.2
					C1680.1,253.4,1680.6,253.6,1680.8,253.2"/>
				<path id="path428_16_" class="st1" d="M23.7,388.8c-2.5,0-2.5-3.8,0-3.8C26.1,385,26.1,388.8,23.7,388.8"/>
			</g>
		</g>
	</g>
	
		<rect x="0" y="0" style="opacity:0.56;clip-path:url(#SVGID_1_);fill:#241B6E;enable-background:new    ;" width="1920" height="500"/>
	<g id="g506_9_" style="clip-path:url(#SVGID_1_);">
		
			<linearGradient id="path481_1_" gradientUnits="userSpaceOnUse" x1="295.1379" y1="-2494.2788" x2="496.7663" y2="-2243.791" gradientTransform="matrix(1 0 0 -1 0 -2049.6614)">
			<stop  offset="0" style="stop-color:#5708A8;stop-opacity:0"/>
			<stop  offset="1" style="stop-color:#0082A8"/>
		</linearGradient>
		<path id="path481_9_" class="st119" d="M512.6,325.8c0,67.3-54.6,121.8-121.8,121.8S269,393.1,269,325.8s54.6-121.9,121.8-121.9
			c30.8,0,58.8,11.4,80.2,30.2C496.5,256.5,512.6,289.3,512.6,325.8L512.6,325.8z"/>
		<g id="g490_11_">
			
				<linearGradient id="path488_1_" gradientUnits="userSpaceOnUse" x1="402.4321" y1="-2483.6953" x2="379.0436" y2="-2267.2683" gradientTransform="matrix(1 0 0 -1 0 -2049.6614)">
				<stop  offset="0" style="stop-color:#5708A8;stop-opacity:0"/>
				<stop  offset="1" style="stop-color:#0082A8"/>
			</linearGradient>
			<path id="path488_11_" class="st78" d="M503.9,212.6c19.7,19.7-15.1,86.2-77.7,148.8c-62.5,62.6-129.1,97.4-148.7,77.7
				s15.1-86.2,77.7-148.8c28.5-28.5,58-51.3,83.5-65.8C468.8,207.3,493.4,201.9,503.9,212.6L503.9,212.6z"/>
		</g>
		
			<linearGradient id="path497_1_" gradientUnits="userSpaceOnUse" x1="300.3447" y1="-2493.4553" x2="476.3036" y2="-2274.8589" gradientTransform="matrix(1 0 0 -1 0 -2049.6614)">
			<stop  offset="0" style="stop-color:#5708A8;stop-opacity:0"/>
			<stop  offset="1" style="stop-color:#0082A8"/>
		</linearGradient>
		<path id="path497_9_" class="st121" d="M512.6,325.8c0,67.3-54.6,121.8-121.8,121.8S269,393.1,269,325.8
			c0-92.1,133.3-123.1,120.5-72.9c-7.5,29.8,18.2,88.4,61.8,52.4C478.1,283.3,512.6,289.3,512.6,325.8L512.6,325.8z"/>
		
			<linearGradient id="path504_1_" gradientUnits="userSpaceOnUse" x1="304.3802" y1="-2494.6814" x2="455.7118" y2="-2306.6785" gradientTransform="matrix(1 0 0 -1 0 -2049.6614)">
			<stop  offset="0" style="stop-color:#5708A8;stop-opacity:0"/>
			<stop  offset="1" style="stop-color:#0082A8"/>
		</linearGradient>
		<path id="path504_9_" class="st122" d="M495.5,339.6c16.2,65.2-37.5,108-104.7,108S269,399.8,269,332.5
			c0-80,104.7-101.9,82.2-48.6c-12,28.3,45.7,103.4,80,69.9C448.8,336.3,488.5,311.8,495.5,339.6L495.5,339.6z"/>
	</g>
	<g id="g506_8_" style="opacity:0.46;clip-path:url(#SVGID_1_);">
		
			<linearGradient id="path481_2_" gradientUnits="userSpaceOnUse" x1="590.7308" y1="-2347.7451" x2="716.8707" y2="-2191.0386" gradientTransform="matrix(1 0 0 -1 0 -2049.6614)">
			<stop  offset="0" style="stop-color:#5708A8;stop-opacity:0"/>
			<stop  offset="1" style="stop-color:#0082A8"/>
		</linearGradient>
		<path id="path481_8_" class="st124" d="M726.8,223.8c0,42.1-34.1,76.2-76.2,76.2s-76.2-34.1-76.2-76.2s34.1-76.2,76.2-76.2
			c19.3,0,36.8,7.1,50.2,18.9C716.7,180.4,726.8,200.9,726.8,223.8L726.8,223.8z"/>
		<g id="g490_10_">
			
				<linearGradient id="path488_2_" gradientUnits="userSpaceOnUse" x1="657.8949" y1="-2341.4961" x2="643.1825" y2="-2205.354" gradientTransform="matrix(1 0 0 -1 0 -2049.6614)">
				<stop  offset="0" style="stop-color:#5708A8;stop-opacity:0"/>
				<stop  offset="1" style="stop-color:#0082A8"/>
			</linearGradient>
			<path id="path488_10_" class="st120" d="M721.4,152.9c12.3,12.3-9.4,54-48.6,93.1c-39.1,39.2-80.7,60.9-93,48.6
				c-12.3-12.3,9.4-54,48.6-93.1c17.9-17.9,36.3-32.1,52.2-41.2C699.4,149.6,714.7,146.2,721.4,152.9L721.4,152.9z"/>
		</g>
		
			<linearGradient id="path497_2_" gradientUnits="userSpaceOnUse" x1="593.9882" y1="-2347.23" x2="704.0692" y2="-2210.4746" gradientTransform="matrix(1 0 0 -1 0 -2049.6614)">
			<stop  offset="0" style="stop-color:#5708A8;stop-opacity:0"/>
			<stop  offset="1" style="stop-color:#0082A8"/>
		</linearGradient>
		<path id="path497_8_" class="st126" d="M726.8,223.8c0,42.1-34.1,76.2-76.2,76.2s-76.2-34.1-76.2-76.2c0-57.6,83.4-77,75.4-45.6
			c-4.7,18.6,11.4,55.3,38.7,32.8C705.2,197.1,726.8,200.9,726.8,223.8L726.8,223.8z"/>
		
			<linearGradient id="path504_2_" gradientUnits="userSpaceOnUse" x1="596.5129" y1="-2347.9971" x2="691.1868" y2="-2230.3813" gradientTransform="matrix(1 0 0 -1 0 -2049.6614)">
			<stop  offset="0" style="stop-color:#5708A8;stop-opacity:0"/>
			<stop  offset="1" style="stop-color:#0082A8"/>
		</linearGradient>
		<path id="path504_8_" class="st127" d="M716.1,232.4c10.2,40.8-23.5,67.5-65.5,67.5s-76.2-29.9-76.2-72c0-50,65.5-63.8,51.4-30.4
			c-7.5,17.7,28.6,64.7,50,43.7C686.9,230.3,711.7,215,716.1,232.4L716.1,232.4z"/>
	</g>
	<g id="g506_7_" style="opacity:0.29;clip-path:url(#SVGID_1_);">
		
			<linearGradient id="path481_3_" gradientUnits="userSpaceOnUse" x1="633.7554" y1="-2575.127" x2="708.7555" y2="-2481.9526" gradientTransform="matrix(1 0 0 -1 0 -2049.6614)">
			<stop  offset="0" style="stop-color:#5708A8;stop-opacity:0"/>
			<stop  offset="1" style="stop-color:#0082A8"/>
		</linearGradient>
		<path id="path481_7_" class="st129" d="M714.6,481.3c0,25-20.3,45.3-45.3,45.3c-25,0-45.3-20.3-45.3-45.3
			c0-25,20.3-45.3,45.3-45.3c11.5,0,21.9,4.2,29.8,11.2C708.7,455.5,714.6,467.7,714.6,481.3L714.6,481.3z"/>
		<g id="g490_9_">
			
				<linearGradient id="path488_3_" gradientUnits="userSpaceOnUse" x1="673.7332" y1="-2571.8145" x2="664.8985" y2="-2490.0613" gradientTransform="matrix(1 0 0 -1 0 -2049.6614)">
				<stop  offset="0" style="stop-color:#5708A8;stop-opacity:0"/>
				<stop  offset="1" style="stop-color:#0082A8"/>
			</linearGradient>
			<path id="path488_9_" class="st125" d="M711.4,439.1c7.3,7.3-5.6,32.1-28.9,55.3c-23.2,23.3-48,36.2-55.3,28.9
				c-7.3-7.3,5.6-32.1,28.9-55.3c10.6-10.6,21.6-19.1,31-24.5C698.3,437.2,707.5,435.2,711.4,439.1L711.4,439.1z"/>
		</g>
		
			<linearGradient id="path497_3_" gradientUnits="userSpaceOnUse" x1="635.6922" y1="-2574.8208" x2="701.1439" y2="-2493.509" gradientTransform="matrix(1 0 0 -1 0 -2049.6614)">
			<stop  offset="0" style="stop-color:#5708A8;stop-opacity:0"/>
			<stop  offset="1" style="stop-color:#0082A8"/>
		</linearGradient>
		<path id="path497_7_" class="st131" d="M714.6,481.3c0,25-20.3,45.3-45.3,45.3c-25,0-45.3-20.3-45.3-45.3
			c0-34.2,49.6-45.8,44.8-27.1c-2.8,11.1,6.8,32.9,23,19.5C701.8,465.5,714.6,467.7,714.6,481.3L714.6,481.3z"/>
		
			<linearGradient id="path504_3_" gradientUnits="userSpaceOnUse" x1="637.1932" y1="-2575.2769" x2="693.4844" y2="-2505.345" gradientTransform="matrix(1 0 0 -1 0 -2049.6614)">
			<stop  offset="0" style="stop-color:#5708A8;stop-opacity:0"/>
			<stop  offset="1" style="stop-color:#0082A8"/>
		</linearGradient>
		<path id="path504_7_" class="st132" d="M708.3,486.4c6,24.3-14,40.2-39,40.2c-25,0-45.3-17.8-45.3-42.8c0-29.7,39-37.9,30.6-18.1
			c-4.5,10.5,17,38.5,29.7,26C690.9,485.2,705.7,476.1,708.3,486.4L708.3,486.4z"/>
	</g>
</g>
</svg>
