<?xml version="1.0" encoding="utf-8"?>
<!-- Generator: Adobe Illustrator 25.2.0, SVG Export Plug-In . SVG Version: 6.00 Build 0)  -->
<svg version="1.1" id="Logos" xmlns="http://www.w3.org/2000/svg" xmlns:xlink="http://www.w3.org/1999/xlink" x="0px" y="0px"
	 viewBox="0 0 200 126" style="enable-background:new 0 0 200 126;" xml:space="preserve">
<style type="text/css">
	.st0{fill:#FFCB03;}
	.st1{fill:#231F20;}
</style>
<g>
	<path class="st0" d="M45.2,82.8c0,5.5-4.4,10.1-10,10.1s-10.1-4.4-10.1-10c0-5.5,4.4-10.1,10-10.1c0,0,0,0,0.1,0
		C40.8,72.8,45.2,77.3,45.2,82.8z"/>
	<path class="st1" d="M92.5,87.3c0,2.9-1.4,4.3-4.3,4.3h-6.4c-2.9,0-4.3-1.4-4.3-4.3V61.5c0-3.5-1.2-5.8-5.2-5.8
		c-2.9,0-5.8,0.9-8.3,2.4v29.2c0,2.9-1.4,4.3-4.3,4.3h-6.4c-2.9,0-4.3-1.4-4.3-4.3V49.2c0-2.9,1.4-4.3,4.3-4.3h2.3
		c2.1,0,2.9,1,4.2,3.3c4.9-3,10.5-4.6,16.3-4.7c12.7,0,16.4,6.7,16.4,15.7L92.5,87.3z"/>
	<path class="st1" d="M134.9,73.2h-23.3c-0.4,6.1,2.8,7.9,10.1,7.9c3.5,0.1,7.1-0.4,10.5-1.3c3.7-0.8,5.9,1.4,5.9,4.2v1.8
		c0,2.5-0.9,4.1-3.3,5c-4.8,1.5-9.9,2.2-15,2.2c-15.4,0-22.9-7.9-22.9-24.7s7.4-24.7,21.9-24.7c18.1,0,20.9,12.2,20.5,25.4
		C139.1,71.7,137.8,73.2,134.9,73.2z M111.5,64h13.3c0.8-5.1-0.3-9.3-6-9.3C113.8,54.8,111.5,58.2,111.5,64z"/>
	<path class="st1" d="M148.2,39.2c0-2.7,1.1-3.7,4.5-4.7l4.9-1.3c3.9-1,5.6,0.9,5.6,3.8v7.9h7.3c2.9,0,4.3,1.4,4.3,4.3V53
		c0,2.9-1.4,4.3-4.3,4.3h-7.3v17.8c0,3.7,1.4,5.7,6.2,5.7h0.9c2.1-0.1,3.9,1.6,4,3.7c0,0.1,0,0.2,0,0.2v3.1c0.1,2.3-1.6,4.3-3.8,4.7
		c-1.4,0.3-2.8,0.4-4.2,0.4c-13.3,0-18.1-5.6-18.1-16.6v-19h-3.7c-2.9,0-4.3-1.4-4.3-4.3v-2.2c0-2.4,1-3.6,3.7-4.5l4.2-1.1
		L148.2,39.2z"/>
</g>
</svg>
