<?xml version="1.0" encoding="utf-8"?>
<!-- Generator: Adobe Illustrator 25.2.0, SVG Export Plug-In . SVG Version: 6.00 Build 0)  -->
<svg version="1.1" id="Logos" xmlns="http://www.w3.org/2000/svg" xmlns:xlink="http://www.w3.org/1999/xlink" x="0px" y="0px"
	 viewBox="0 0 200 126" style="enable-background:new 0 0 200 126;" xml:space="preserve">
<style type="text/css">
	.st0{fill:url(#path21_1_);}
	.st1{fill:#005AA1;}
</style>
<g id="Page-1">
	<g id="Domain-Showroom-new-masthead-desktop-breakpoint" transform="translate(-188.000000, -662.000000)">
		<g id="masthead-area" transform="translate(-515.000000, -551.000000)">
			<g id="Domain-Hero-Cards" transform="translate(648.000000, 1143.000000)">
				<g id="_x2E_com-hover" transform="translate(0.000000, 34.000000)">
					<g id="DotCom" transform="translate(55.000000, 36.300000)">
						
							<linearGradient id="path21_1_" gradientUnits="userSpaceOnUse" x1="-366.9135" y1="29.3514" x2="-366.9135" y2="27.83" gradientTransform="matrix(13.144 0 0 13.144 4833.3184 -312.9604)">
							<stop  offset="0" style="stop-color:#128CD9"/>
							<stop  offset="1" style="stop-color:#1FC7FD"/>
						</linearGradient>
						<circle id="path21" class="st0" cx="10.6" cy="62.9" r="10.1"/>
						<g id="text25" transform="translate(18.885577, 0.016921)">
							<path id="path12" class="st1" d="M56.1,68.1c-0.6,2.5-1.5,4.9-2.9,7.1c-1.3,2.2-3,4.2-4.9,5.9c-1.9,1.7-4.1,3-6.6,3.9
								c-2.5,1-5.1,1.4-8,1.4c-3.2,0-6.3-0.6-9.1-1.8c-2.8-1.2-5.2-2.9-7.3-5.1c-2-2.2-3.6-4.7-4.8-7.6s-1.8-6-1.8-9.3
								s0.6-6.3,1.7-9.2c1.2-2.9,2.8-5.4,4.8-7.5c2.1-2.1,4.4-3.8,7.2-5.1c2.8-1.2,5.8-1.8,8.9-1.8c2.8,0,5.5,0.5,8,1.4
								s4.8,2.2,6.7,3.8c2,1.6,3.7,3.6,5,5.9c1.4,2.3,2.4,4.8,2.9,7.5h-13c-0.4-0.7-0.8-1.5-1.3-2.2s-1.1-1.4-1.9-2
								s-1.6-1.1-2.6-1.4c-1-0.4-2.1-0.6-3.5-0.6c-1.5-0.1-2.9,0.2-4.2,0.8c-1.2,0.5-2.3,1.3-3.2,2.3c-0.9,1-1.6,2.2-2.1,3.7
								c-0.5,1.4-0.7,2.9-0.7,4.5s0.2,3.1,0.7,4.5s1.2,2.6,2.1,3.6s2,1.8,3.2,2.4c1.2,0.5,2.6,0.8,4.2,0.8c1.3,0,2.5-0.2,3.5-0.6
								s1.9-0.8,2.6-1.4c0.7-0.6,1.3-1.2,1.9-1.9c0.5-0.7,1-1.4,1.3-2.1L56.1,68.1L56.1,68.1z"/>
							<path id="path14" class="st1" d="M73.9,62.7c0,1.6,0.3,3.1,0.8,4.5c0.6,1.4,1.3,2.6,2.2,3.6c1,1,2.1,1.7,3.3,2.3
								c1.2,0.5,2.5,0.8,3.9,0.8s2.7-0.3,3.9-0.8c1.2-0.6,2.3-1.4,3.2-2.3c1-1,1.7-2.2,2.2-3.6c0.6-1.4,0.8-2.9,0.8-4.5
								s-0.3-3.1-0.8-4.5s-1.3-2.6-2.2-3.5c-0.9-1-2-1.8-3.2-2.3c-1.2-0.6-2.5-0.9-3.9-0.9s-2.7,0.3-3.9,0.9
								c-1.2,0.5-2.3,1.3-3.3,2.3c-0.9,1-1.7,2.1-2.2,3.5S73.9,61.1,73.9,62.7z M61.1,62.7c0-2.7,0.5-5.5,1.4-8.3
								c1-2.8,2.4-5.4,4.3-7.6c1.9-2.3,4.3-4.2,7.2-5.6c2.9-1.4,6.3-2.2,10.2-2.2s7.3,0.7,10.2,2.2c2.9,1.4,5.3,3.3,7.2,5.6
								c1.9,2.2,3.3,4.8,4.2,7.6c1,2.8,1.5,5.5,1.5,8.3c0,2.7-0.5,5.5-1.5,8.3c-0.9,2.8-2.3,5.3-4.2,7.6c-1.9,2.2-4.3,4.1-7.2,5.5
								s-6.3,2.2-10.2,2.2s-7.3-0.7-10.2-2.2c-2.9-1.4-5.2-3.2-7.2-5.5c-1.9-2.3-3.3-4.8-4.3-7.6C61.6,68.2,61.1,65.4,61.1,62.7z"/>
							<path id="path16" class="st1" d="M114.5,40.5h12v4.7h0.2c0.3-0.5,0.6-1.1,1.2-1.8c0.5-0.7,1.2-1.4,2.1-2
								c0.9-0.7,2.1-1.3,3.5-1.8s3.1-0.7,5.1-0.7c0.9,0,1.9,0.1,3,0.3s2.2,0.6,3.3,1.2c1.1,0.6,2.1,1.4,3.2,2.4c1,1,2,2.4,2.9,4
								c1.3-2.2,3.1-4.1,5.3-5.6s5-2.3,8.3-2.3c0.8,0,1.6,0.1,2.5,0.2c0.9,0.1,1.9,0.3,2.9,0.6s2,0.8,3,1.4c1,0.6,2,1.4,2.9,2.3
								c1,1.1,1.8,2.2,2.4,3.2c0.6,1,1.1,2.1,1.4,3.4c0.4,1.3,0.6,2.8,0.7,4.5c0.1,1.7,0.2,3.7,0.2,6.2V85h-12.8V61.3
								c0-0.9-0.1-1.9-0.2-3c-0.1-1.2-0.3-2.2-0.7-3.2s-1.1-1.9-1.9-2.6c-0.9-0.7-2.1-1-3.8-1c-1.8,0-3.2,0.4-4.2,1.1
								c-0.9,0.7-1.6,1.6-2.1,2.6c-0.4,1-0.7,2-0.8,3S154,60,154,60.7V85h-12.8V60.8c0-0.6-0.1-1.4-0.2-2.4
								c-0.1-1.1-0.3-2.1-0.7-3.1s-1-1.9-1.9-2.6s-2.1-1.1-3.7-1.1c-1.8,0-3.2,0.4-4.2,1.2c-1,0.7-1.7,1.7-2.2,2.7
								c-0.5,1.1-0.7,2.2-0.8,3.3c-0.1,1.1-0.1,2-0.1,2.6v23.7h-12.8L114.5,40.5L114.5,40.5z"/>
						</g>
					</g>
				</g>
			</g>
		</g>
	</g>
</g>
</svg>
