<?xml version="1.0" encoding="utf-8"?>
<!-- Generator: Adobe Illustrator 23.0.3, SVG Export Plug-In . SVG Version: 6.00 Build 0)  -->
<svg version="1.1" id="Layer_1" xmlns:svg="http://www.w3.org/2000/svg"
	 xmlns="http://www.w3.org/2000/svg" xmlns:xlink="http://www.w3.org/1999/xlink" x="0px" y="0px" viewBox="0 0 1920 500"
	 style="enable-background:new 0 0 1920 500;" xml:space="preserve">
<style type="text/css">
	.st0{fill:#02024C;}
	.st1{fill:#009EE2;}
	.st2{opacity:0.56;fill:#241B6E;enable-background:new    ;}
	.st3{fill:#28126A;}
	.st4{fill:url(#SVGID_1_);}
	.st5{fill:url(#SVGID_2_);}
	.st6{opacity:0.1;fill:#FFFFFF;enable-background:new    ;}
	.st7{fill:#A787FA;}
	.st8{opacity:0.64;fill:#511EBA;enable-background:new    ;}
	.st9{fill:#FF9900;}
	.st10{fill:url(#SVGID_3_);}
	.st11{opacity:0.5;fill:url(#SVGID_4_);enable-background:new    ;}
	.st12{fill:url(#SVGID_5_);}
	.st13{opacity:0.5;fill:url(#SVGID_6_);enable-background:new    ;}
	.st14{fill:url(#SVGID_7_);}
	.st15{opacity:0.11;fill:#FF5800;enable-background:new    ;}
	.st16{opacity:0.29;fill:url(#SVGID_8_);enable-background:new    ;}
	.st17{opacity:0.28;fill:url(#SVGID_9_);enable-background:new    ;}
	.st18{fill:#FFC875;}
	.st19{fill:url(#SVGID_10_);}
	.st20{opacity:0.63;fill:url(#SVGID_11_);enable-background:new    ;}
	.st21{fill:none;}
	.st22{fill:url(#SVGID_12_);}
	.st23{fill:url(#SVGID_13_);}
	.st24{fill:url(#SVGID_14_);}
	.st25{fill:url(#SVGID_15_);}
	.st26{fill:url(#SVGID_16_);}
	.st27{fill:url(#SVGID_17_);}
	.st28{fill:url(#SVGID_18_);}
	.st29{fill:url(#SVGID_19_);}
	.st30{fill:url(#SVGID_20_);}
	.st31{fill:url(#SVGID_21_);}
	.st32{fill:url(#SVGID_22_);}
	.st33{fill:url(#SVGID_23_);}
	.st34{opacity:0.39;}
	.st35{fill:url(#SVGID_24_);}
	.st36{fill:url(#SVGID_25_);}
	.st37{fill:url(#SVGID_26_);}
	.st38{fill:url(#SVGID_27_);}
	.st39{fill:url(#SVGID_28_);}
	.st40{fill:url(#SVGID_29_);}
	.st41{fill:url(#SVGID_30_);}
	.st42{fill:url(#SVGID_31_);}
	.st43{fill:url(#SVGID_32_);}
	.st44{fill:url(#SVGID_33_);}
	.st45{fill:url(#SVGID_34_);}
	.st46{fill:url(#SVGID_35_);}
	.st47{opacity:0.22;}
	.st48{fill:url(#SVGID_36_);}
	.st49{fill:url(#SVGID_37_);}
	.st50{fill:url(#SVGID_38_);}
	.st51{fill:url(#SVGID_39_);}
	.st52{fill:url(#SVGID_40_);}
	.st53{fill:url(#SVGID_41_);}
	.st54{fill:url(#SVGID_42_);}
	.st55{fill:url(#SVGID_43_);}
	.st56{fill:url(#SVGID_44_);}
	.st57{fill:url(#SVGID_45_);}
	.st58{fill:url(#SVGID_46_);}
	.st59{fill:url(#SVGID_47_);}
	.st60{fill:url(#SVGID_50_);}
	.st61{fill:url(#SVGID_51_);}
	.st62{fill:url(#SVGID_52_);}
	.st63{fill:url(#SVGID_53_);}
	.st64{fill:url(#SVGID_54_);}
	.st65{fill:url(#SVGID_55_);}
	.st66{fill:url(#SVGID_56_);}
	.st67{fill:url(#SVGID_57_);}
	.st68{fill:url(#SVGID_58_);}
	.st69{fill:url(#SVGID_59_);}
	.st70{fill:url(#SVGID_60_);}
	.st71{fill:url(#SVGID_61_);}
	.st72{fill:url(#SVGID_62_);}
	.st73{fill:url(#SVGID_63_);}
	.st74{fill:url(#SVGID_64_);}
	.st75{fill:url(#circle513_1_);}
	.st76{fill:url(#path520_1_);}
	.st77{fill:url(#path527_1_);}
	
		.st78{fill:none;stroke:url(#path488_1_);stroke-width:1.999;stroke-miterlimit:10;stroke-dasharray:67.08,4.791,1.917,4.791,33.54,4.791;}
	.st79{fill:url(#circle513_2_);enable-background:new    ;}
	.st80{opacity:0.84;fill:url(#path520_2_);enable-background:new    ;}
	.st81{opacity:0.84;fill:url(#path527_2_);enable-background:new    ;}
	.st82{fill:url(#SVGID_65_);}
	.st83{fill:url(#SVGID_66_);}
	.st84{fill:url(#SVGID_67_);}
	.st85{fill:url(#SVGID_68_);}
	.st86{fill:url(#SVGID_69_);}
	.st87{fill:url(#SVGID_70_);}
	.st88{fill:url(#SVGID_71_);}
	.st89{fill:url(#SVGID_72_);}
	.st90{fill:url(#SVGID_73_);}
	.st91{fill:url(#SVGID_74_);}
	.st92{fill:url(#SVGID_75_);}
	.st93{fill:url(#SVGID_76_);}
	.st94{fill:url(#SVGID_77_);}
	.st95{fill:url(#SVGID_78_);}
	.st96{fill:url(#SVGID_79_);}
	.st97{fill:url(#SVGID_80_);}
	.st98{fill:url(#SVGID_81_);}
	.st99{fill:url(#SVGID_82_);}
	.st100{fill:url(#SVGID_83_);}
	.st101{fill:url(#SVGID_84_);}
	.st102{fill:url(#SVGID_85_);}
	.st103{opacity:0.54;}
	.st104{fill:url(#SVGID_86_);}
	.st105{fill:url(#SVGID_87_);}
	.st106{fill:url(#SVGID_88_);}
	.st107{fill:url(#SVGID_89_);}
	.st108{fill:url(#SVGID_90_);}
	.st109{fill:url(#SVGID_91_);}
	.st110{fill:url(#SVGID_92_);}
	.st111{fill:url(#SVGID_93_);}
	.st112{fill:url(#SVGID_94_);}
	.st113{fill:url(#SVGID_95_);}
	.st114{fill:url(#SVGID_96_);}
	.st115{fill:url(#SVGID_97_);}
	.st116{clip-path:url(#SVGID_99_);fill:#02024C;}
	.st117{clip-path:url(#SVGID_99_);}
	.st118{opacity:0.56;clip-path:url(#SVGID_99_);fill:#241B6E;enable-background:new    ;}
	.st119{fill:url(#path481_1_);}
	
		.st120{fill:none;stroke:url(#path488_2_);stroke-width:1.999;stroke-miterlimit:10;stroke-dasharray:67.08,4.791,1.917,4.791,33.54,4.791;}
	.st121{fill:url(#path497_1_);}
	.st122{fill:url(#path504_1_);}
	.st123{opacity:0.46;clip-path:url(#SVGID_99_);}
	.st124{fill:url(#path481_2_);}
	
		.st125{fill:none;stroke:url(#path488_3_);stroke-width:1.999;stroke-miterlimit:10;stroke-dasharray:67.08,4.791,1.917,4.791,33.54,4.791;}
	.st126{fill:url(#path497_2_);}
	.st127{fill:url(#path504_2_);}
	.st128{opacity:0.29;clip-path:url(#SVGID_99_);}
	.st129{fill:url(#path481_3_);}
	
		.st130{fill:none;stroke:url(#path488_4_);stroke-width:1.999;stroke-miterlimit:10;stroke-dasharray:67.08,4.791,1.917,4.791,33.54,4.791;}
	.st131{fill:url(#path497_3_);}
	.st132{fill:url(#path504_3_);}
	.st133{clip-path:url(#SVGID_101_);fill:#02024C;}
	.st134{clip-path:url(#SVGID_101_);}
	.st135{opacity:0.56;clip-path:url(#SVGID_101_);fill:#241B6E;enable-background:new    ;}
	.st136{fill:url(#e9q9ugz0s6q7_1_);}
	.st137{fill:url(#SVGID_102_);}
	.st138{fill:url(#e9q9ugz0s6q7_2_);}
	.st139{fill:url(#SVGID_103_);}
	.st140{opacity:0.4;}
	.st141{fill:url(#e9q9ugz0s6q7_3_);}
	.st142{fill:url(#SVGID_104_);}
	.st143{opacity:0.17;}
	.st144{fill:url(#e9q9ugz0s6q7_4_);}
	.st145{fill:url(#SVGID_105_);}
	.st146{fill:url(#e9q9ugz0s6q7_10_);}
	.st147{fill:url(#SVGID_106_);}
	.st148{clip-path:url(#SVGID_108_);}
	.st149{fill:url(#e9q9ugz0s6q11_2_);}
	.st150{clip-path:url(#SVGID_110_);}
	.st151{fill:url(#e9q9ugz0s6q16_2_);}
	.st152{clip-path:url(#SVGID_112_);}
	.st153{fill:url(#e9q9ugz0s6q21_2_);}
	.st154{fill:url(#SVGID_113_);enable-background:new    ;}
	.st155{clip-path:url(#SVGID_115_);}
	.st156{fill:url(#SVGID_116_);}
	.st157{fill:url(#SVGID_117_);}
	.st158{fill:url(#SVGID_118_);}
	.st159{fill:url(#SVGID_119_);}
	.st160{fill:url(#SVGID_120_);}
	.st161{fill-rule:evenodd;clip-rule:evenodd;fill:#A34302;}
	.st162{fill-rule:evenodd;clip-rule:evenodd;fill:#DF7C09;}
	.st163{fill-rule:evenodd;clip-rule:evenodd;fill:url(#SVGID_121_);}
	.st164{fill-rule:evenodd;clip-rule:evenodd;fill:url(#SVGID_122_);}
	.st165{fill-rule:evenodd;clip-rule:evenodd;fill:#FEFEFE;}
	.st166{opacity:0.22;fill-rule:evenodd;clip-rule:evenodd;fill:#BE4E01;enable-background:new    ;}
	.st167{fill-rule:evenodd;clip-rule:evenodd;fill:#364C62;}
	.st168{fill-rule:evenodd;clip-rule:evenodd;fill:#ECF0F1;}
	.st169{opacity:0.46;fill-rule:evenodd;clip-rule:evenodd;fill:#EAA416;enable-background:new    ;}
	.st170{fill-rule:evenodd;clip-rule:evenodd;fill:url(#SVGID_123_);}
	.st171{fill-rule:evenodd;clip-rule:evenodd;fill:url(#SVGID_124_);}
	.st172{fill-rule:evenodd;clip-rule:evenodd;fill:url(#SVGID_125_);}
	.st173{clip-path:url(#SVGID_127_);}
	.st174{fill:url(#SVGID_128_);}
	.st175{fill:url(#SVGID_129_);}
	.st176{fill:url(#SVGID_130_);}
	.st177{fill:url(#SVGID_131_);}
	.st178{fill:url(#SVGID_132_);}
	.st179{opacity:0.84;fill:url(#SVGID_133_);enable-background:new    ;}
	.st180{fill:url(#SVGID_134_);}
	.st181{fill:url(#SVGID_135_);}
	.st182{fill:url(#SVGID_136_);}
	.st183{clip-path:url(#SVGID_138_);}
	.st184{fill:url(#SVGID_139_);enable-background:new    ;}
	.st185{fill:url(#SVGID_140_);enable-background:new    ;}
	.st186{fill:url(#SVGID_141_);enable-background:new    ;}
	.st187{fill:url(#SVGID_142_);enable-background:new    ;}
	.st188{opacity:0.84;fill:url(#SVGID_143_);enable-background:new    ;}
	.st189{fill:url(#SVGID_144_);enable-background:new    ;}
	.st190{fill:url(#SVGID_145_);}
	.st191{fill:url(#SVGID_146_);}
	.st192{opacity:0.84;fill:url(#SVGID_147_);enable-background:new    ;}
	.st193{fill:url(#SVGID_148_);}
	.st194{fill:url(#SVGID_149_);}
	.st195{fill:url(#SVGID_150_);}
	.st196{fill:url(#SVGID_151_);}
	.st197{fill:url(#SVGID_152_);}
	.st198{opacity:0.84;fill:url(#SVGID_153_);enable-background:new    ;}
	.st199{fill:url(#SVGID_154_);}
	.st200{fill:url(#SVGID_155_);}
	.st201{fill:url(#SVGID_156_);}
	.st202{fill:url(#SVGID_157_);}
</style>
<rect x="0" y="0" class="st0" width="1920" height="500"/>
<g id="g464_15_">
	<g id="g462_15_">
		<g id="g460_15_">
			<path id="path378_15_" class="st1" d="M770.7,104.9c2.5,0,2.5-3.8,0-3.8C768.3,101.1,768.3,104.9,770.7,104.9"/>
			<path id="path380_15_" class="st1" d="M444.4,179.8c2.5,0,2.5-3.8,0-3.8C442,176.1,442,179.8,444.4,179.8"/>
			<path id="path382_15_" class="st1" d="M1273.1,124.4c0.9,0,0.9-1.5,0-1.5S1272.2,124.4,1273.1,124.4"/>
			<path id="path384_15_" class="st1" d="M1270.8,64.4c2.7,0,2.7-4.1,0-4.1C1268.1,60.3,1268.1,64.4,1270.8,64.4"/>
			<path id="path386_15_" class="st1" d="M1207.3,126c1,0,1-1.6,0-1.6S1206.1,126,1207.3,126"/>
			<path id="path388_15_" class="st1" d="M1044.3,62.7c2.9,0,2.9-4.4,0-4.4C1041.4,58.3,1041.4,62.7,1044.3,62.7"/>
			<path id="path390_15_" class="st1" d="M553.2,48.2c0.2,0,0.2-0.3,0-0.3C552.9,47.9,552.9,48.2,553.2,48.2"/>
			<path id="path392_15_" class="st1" d="M524.6,164.2c1.9,0,1.9-2.8,0-2.8C522.8,161.2,522.8,164.2,524.6,164.2"/>
			<path id="path394_15_" class="st1" d="M933.7,38.4c0,0.4,0,0.8,0.1,1.2c0,0.8,1.2,0.8,1.2,0c0-0.4,0-0.8,0.1-1.2
				C935.1,37.6,933.7,37.6,933.7,38.4"/>
			<path id="path396_15_" class="st1" d="M599.1,48.5c1.4,0,1.4-2.3,0-2.3S597.6,48.5,599.1,48.5"/>
			<path id="path398_15_" class="st1" d="M80.7,50c2.2,0,2.2-3.5,0-3.5C78.5,46.6,78.5,50,80.7,50"/>
			<path id="path400_15_" class="st1" d="M619.3,91.5c0.1-0.4,0.2-0.7,0.4-1.2c0.2-0.4-0.6-0.6-0.7-0.2c-0.1,0.4-0.2,0.7-0.2,1.2
				C618.6,91.7,619.2,91.8,619.3,91.5"/>
			<path id="path402_8_" class="st1" d="M1472.7,238.7c2.5,0,2.5-3.8,0-3.8C1470.3,234.9,1470.3,238.7,1472.7,238.7"/>
			<path id="path404_8_" class="st1" d="M1146.4,313.7c2.5,0,2.5-3.8,0-3.8C1144,309.9,1144,313.7,1146.4,313.7"/>
			<path id="path406_1_" class="st1" d="M1909.2,259.9c1,0,1-1.6,0-1.6C1908.2,258.2,1908.2,259.9,1909.2,259.9"/>
			<path id="path408_15_" class="st1" d="M1766.7,187c2.9,0,2.9-4.4,0-4.4C1763.8,182.5,1763.8,187,1766.7,187"/>
			<path id="path410_15_" class="st1" d="M1255.2,181.9c0.2,0,0.2-0.3,0-0.3C1255,181.6,1255,181.9,1255.2,181.9"/>
			<path id="path412_8_" class="st1" d="M1226.6,298c1.9,0,1.9-2.8,0-2.8C1224.8,295.1,1224.8,298,1226.6,298"/>
			<path id="path414_15_" class="st1" d="M1635.7,188.1c0,0.4,0,0.8,0.1,1.2c0,0.8,1.2,0.8,1.2,0c0-0.4,0-0.8,0.1-1.2
				C1637.2,187.3,1635.6,187.3,1635.7,188.1"/>
			<path id="path416_15_" class="st1" d="M1301.1,182.3c1.4,0,1.4-2.3,0-2.3C1299.6,180,1299.6,182.3,1301.1,182.3"/>
			<path id="path418_8_" class="st1" d="M1321.3,225.2c0.1-0.4,0.2-0.7,0.4-1.2c0.2-0.4-0.6-0.6-0.7-0.2c-0.1,0.4-0.2,0.7-0.2,1.2
				C1320.7,225.5,1321.2,225.7,1321.3,225.2"/>
			<path id="path420_15_" class="st1" d="M1781.8,46.5c2.5,0,2.5-3.8,0-3.8C1779.4,42.7,1779.4,46.5,1781.8,46.5"/>
			<path id="path422_15_" class="st1" d="M1486.7,121.5c2.5,0,2.5-3.8,0-3.8S1484.2,121.5,1486.7,121.5"/>
			<path id="path424_15_" class="st1" d="M1567,105.8c1.9,0,1.9-2.8,0-2.8C1565.1,102.9,1565.1,105.8,1567,105.8"/>
			<path id="path426_15_" class="st1" d="M1661.7,33c0.1-0.4,0.2-0.7,0.4-1.2c0.2-0.4-0.6-0.6-0.7-0.2c-0.1,0.4-0.2,0.7-0.2,1.2
				C1661,33.2,1661.5,33.5,1661.7,33"/>
			<path id="path428_15_" class="st1" d="M38.7,168.6c-2.5,0-2.5-3.8,0-3.8C41.1,164.8,41.1,168.6,38.7,168.6"/>
			<path id="path430_8_" class="st1" d="M365,243.6c-2.5,0-2.5-3.8,0-3.8S367.5,243.6,365,243.6"/>
			<path id="path432_8_" class="st1" d="M256.2,111.9c-0.2,0-0.2-0.3,0-0.3C256.4,111.5,256.4,111.9,256.2,111.9"/>
			<path id="path434_8_" class="st1" d="M284.8,227.9c-1.9,0-1.9-2.8,0-2.8S286.7,227.9,284.8,227.9"/>
			<path id="path436_8_" class="st1" d="M210.3,112.2c-1.4,0-1.4-2.3,0-2.3C211.8,110,211.8,112.2,210.3,112.2"/>
			<path id="path438_8_" class="st1" d="M190.1,155.2c-0.1-0.4-0.2-0.7-0.4-1.2c-0.2-0.4,0.6-0.6,0.7-0.2c0.1,0.4,0.2,0.7,0.2,1.2
				C190.7,155.4,190.2,155.6,190.1,155.2"/>
			<path id="path458_8_" class="st1" d="M245.6,85.4c2.1,0,2.1-3.3,0-3.3C243.4,82.1,243.4,85.4,245.6,85.4"/>
		</g>
	</g>
</g>
<g id="g464_1_">
	<g id="g462_1_">
		<g id="g460_1_">
			<path id="path378_1_" class="st1" d="M771.1,325.1c2.5,0,2.5-3.8,0-3.8C768.6,321.3,768.6,325.1,771.1,325.1"/>
			<path id="path380_1_" class="st1" d="M437.9,400c2.5,0,2.5-3.8,0-3.8C435.5,396.2,435.5,400,437.9,400"/>
			<path id="path382_1_" class="st1" d="M1284.1,344.5c0.9,0,0.9-1.5,0-1.5C1283.1,343.1,1283.1,344.5,1284.1,344.5"/>
			<path id="path384_1_" class="st1" d="M1281.7,284.5c2.7,0,2.7-4.1,0-4.1S1278.9,284.5,1281.7,284.5"/>
			<path id="path386_1_" class="st1" d="M1216.8,346.2c1.1,0,1.1-1.6,0-1.6S1215.7,346.2,1216.8,346.2"/>
			<path id="path388_1_" class="st1" d="M1050.5,282.8c2.9,0,2.9-4.4,0-4.4C1047.5,278.4,1047.5,282.8,1050.5,282.8"/>
			<path id="path390_1_" class="st1" d="M549.1,268.3c0.2,0,0.2-0.3,0-0.3C548.8,268,548.8,268.3,549.1,268.3"/>
			<path id="path392_1_" class="st1" d="M519.9,384.4c1.9,0,1.9-2.8,0-2.8C518,381.4,518,384.4,519.9,384.4"/>
			<path id="path394_1_" class="st1" d="M937.5,258.6c0,0.4,0,0.8,0.1,1.2c0,0.8,1.3,0.8,1.3,0c0-0.4,0-0.8,0.1-1.2
				C939,257.7,937.5,257.7,937.5,258.6"/>
			<path id="path396_1_" class="st1" d="M595.8,268.6c1.5,0,1.5-2.3,0-2.3S594.4,268.6,595.8,268.6"/>
			<path id="path398_1_" class="st1" d="M66.6,270.1c2.2,0,2.2-3.5,0-3.5C64.4,266.8,64.4,270.1,66.6,270.1"/>
			<path id="path400_1_" class="st1" d="M616.5,311.6c0.1-0.4,0.2-0.7,0.4-1.2c0.2-0.4-0.6-0.6-0.7-0.2c-0.1,0.4-0.2,0.7-0.2,1.2
				C615.8,311.8,616.4,311.9,616.5,311.6"/>
			<path id="path408_1_" class="st1" d="M1788,407.2c2.9,0,2.9-4.4,0-4.4C1785.1,402.6,1785.1,407.2,1788,407.2"/>
			<path id="path410_1_" class="st1" d="M1265.8,402.1c0.2,0,0.2-0.3,0-0.3S1265.6,402.1,1265.8,402.1"/>
			<path id="path416_1_" class="st1" d="M1312.7,402.4c1.5,0,1.5-2.3,0-2.3C1311.1,400.1,1311.1,402.4,1312.7,402.4"/>
			<path id="path420_1_" class="st1" d="M1803.4,266.7c2.5,0,2.5-3.8,0-3.8C1801,262.9,1801,266.7,1803.4,266.7"/>
			<path id="path422_1_" class="st1" d="M1502.2,341.7c2.5,0,2.5-3.8,0-3.8S1499.6,341.7,1502.2,341.7"/>
			<path id="path426_1_" class="st1" d="M1680.8,253.2c0.1-0.4,0.2-0.7,0.4-1.2c0.2-0.4-0.6-0.6-0.7-0.2c-0.1,0.4-0.2,0.7-0.2,1.2
				C1680.1,253.4,1680.6,253.6,1680.8,253.2"/>
			<path id="path428_1_" class="st1" d="M23.7,388.8c-2.5,0-2.5-3.8,0-3.8C26.1,385,26.1,388.8,23.7,388.8"/>
		</g>
	</g>
</g>
<rect x="0" y="0" class="st2" width="1920" height="500"/>
<g>
	<g id="benefits_6_">
		<g>
			<g>
				<g>
					<path class="st3" d="M143.7,252c0,0,68.9-36.5,107.2-114l10.4-0.9c22.3,13.1,66.6,43.3,95,49.1c0,0,15.9,169.8-70.1,254.1
						C286.1,440.2,157.6,407.2,143.7,252z"/>
					
						<linearGradient id="SVGID_1_" gradientUnits="userSpaceOnUse" x1="2668.6174" y1="1011.1005" x2="2893.5249" y2="1011.1005" gradientTransform="matrix(0.996 -8.978403e-02 -8.978403e-02 -0.996 -2408.3948 1549.2375)">
						<stop  offset="0" style="stop-color:#5708A8;stop-opacity:0.1"/>
						<stop  offset="1" style="stop-color:#0082A8"/>
					</linearGradient>
					<path class="st4" d="M154.3,253.8c0,0,68.7-39.2,107-116.8c0,0,76.5,47.2,113.3,54.8c0,0,15.9,169.8-70.1,254.1
						C304.4,445.9,169.7,424.3,154.3,253.8z"/>
					
						<linearGradient id="SVGID_2_" gradientUnits="userSpaceOnUse" x1="2667.3215" y1="1003.6452" x2="2823.2661" y2="1012.8982" gradientTransform="matrix(0.996 -8.978403e-02 -8.978403e-02 -0.996 -2408.3948 1549.2375)">
						<stop  offset="0" style="stop-color:#5708A8;stop-opacity:0.1"/>
						<stop  offset="1" style="stop-color:#0082A8"/>
					</linearGradient>
					<path class="st5" d="M154.3,253.8c0,0,68.8-39.1,107-116.8c0,0,9.8,31.7,12.5,42.5c39.3,155.5,30.7,266.3,30.7,266.3
						S167,422.5,154.3,253.8z"/>
					<path class="st6" d="M196.6,263.7c0,0,49.5-28.3,77.2-84.2c0,0,55.2,34,81.7,39.5c0,0,11.5,122.5-50.6,183.2
						C304.8,402.2,207.7,386.7,196.6,263.7z"/>
					<path class="st7" d="M304.8,402.2c-15.5-3-30.2-9.4-43.5-17.9c-13.4-8.6-25.1-19.4-34.8-32c-9.6-12.7-17.1-26.9-22.3-42
						c-5.2-15.1-8.6-30.7-10.2-46.5l0,0l-0.1-1.5l1.3-0.8c8.2-4.8,16-10.2,23.4-16.2c7.5-6,14.5-12.5,21.2-19.4
						c3.4-3.4,6.5-7.1,9.7-10.7c3-3.7,6.1-7.4,8.9-11.4c5.7-7.8,10.8-15.9,15.3-24.4c-4.2,8.7-8.9,17.1-14.3,25.2
						c-2.6,4.1-5.6,7.9-8.4,11.8c-3.1,3.7-6,7.6-9.3,11.2c-6.4,7.3-13.3,14.2-20.6,20.6c-7.3,6.5-15.1,12.4-23.3,17.7l1.2-2.3l0,0
						c1.1,15.5,4.1,30.9,8.8,45.8c4.7,14.9,11.7,28.9,20.8,41.6c9.2,12.7,20.5,23.7,33.5,32.5C275,392.2,289.5,398.6,304.8,402.2z"
						/>
				</g>
				<polygon class="st8" points="284.5,236.4 252.4,293.9 305.3,361.8 335.6,279.4 				"/>
				<g>
					
						<linearGradient id="SVGID_3_" gradientUnits="userSpaceOnUse" x1="507.675" y1="302.5567" x2="585.1359" y2="302.5567" gradientTransform="matrix(-0.9847 0.1742 0.1742 0.9847 778.6356 -94.8888)">
						<stop  offset="0" style="stop-color:#5708A8;stop-opacity:0.1"/>
						<stop  offset="1" style="stop-color:#0082A8"/>
					</linearGradient>
					<polygon class="st10" points="284.3,240 253.2,293.8 304.8,356 329.8,282.1 					"/>
					
						<linearGradient id="SVGID_4_" gradientUnits="userSpaceOnUse" x1="2876.2019" y1="133.4856" x2="2876.2019" y2="232.9966" gradientTransform="matrix(0.9847 -0.1742 -0.1742 -0.9847 -2508.5759 975.8016)">
						<stop  offset="0" style="stop-color:#5708A8;stop-opacity:0.1"/>
						<stop  offset="1" style="stop-color:#0082A8"/>
					</linearGradient>
					<polygon style="fill:url(#SVGID_4_);" points="283.7,241.7 252.6,295.5 304.2,357.6 329.2,283.8 					"/>
					
						<linearGradient id="SVGID_5_" gradientUnits="userSpaceOnUse" x1="2900.4382" y1="214.7839" x2="2895.55" y2="211.5608" gradientTransform="matrix(0.9847 -0.1742 -0.1742 -0.9847 -2508.5759 975.8016)">
						<stop  offset="0" style="stop-color:#5708A8;stop-opacity:0.1"/>
						<stop  offset="1" style="stop-color:#0082A8"/>
					</linearGradient>
					<polygon class="st12" points="317.8,276 329.3,283.5 283.8,241.5 					"/>
					
						<linearGradient id="SVGID_6_" gradientUnits="userSpaceOnUse" x1="2851.4917" y1="230.8389" x2="2861.2441" y2="202.1761" gradientTransform="matrix(0.9847 -0.1742 -0.1742 -0.9847 -2508.5759 975.8016)">
						<stop  offset="0" style="stop-color:#5708A8;stop-opacity:0.1"/>
						<stop  offset="1" style="stop-color:#0082A8"/>
					</linearGradient>
					<polygon style="fill:url(#SVGID_6_);" points="252.7,295.3 275.3,280.1 283.8,241.5 					"/>
					
						<linearGradient id="SVGID_7_" gradientUnits="userSpaceOnUse" x1="2895.9229" y1="155.4504" x2="2888.6323" y2="159.3514" gradientTransform="matrix(0.9847 -0.1742 -0.1742 -0.9847 -2508.5759 975.8016)">
						<stop  offset="0" style="stop-color:#5708A8;stop-opacity:0.1"/>
						<stop  offset="1" style="stop-color:#0082A8"/>
					</linearGradient>
					<polygon class="st14" points="317.8,276 304.3,357.4 329.3,283.5 					"/>
					
						<linearGradient id="SVGID_8_" gradientUnits="userSpaceOnUse" x1="2882.2075" y1="237.557" x2="2883.8489" y2="196.9891" gradientTransform="matrix(0.9847 -0.1742 -0.1742 -0.9847 -2508.5759 975.8016)">
						<stop  offset="0" style="stop-color:#5708A8;stop-opacity:0.1"/>
						<stop  offset="1" style="stop-color:#0082A8"/>
					</linearGradient>
					<polygon style="fill:url(#SVGID_8_);" points="283.8,241.5 275.3,280.1 317.8,276 					"/>
					<path class="st15" d="M252.7,295.3l24.8,29.9c-12.6-18.8-2.2-45.1-2.2-45.1L252.7,295.3z"/>
					
						<linearGradient id="SVGID_9_" gradientUnits="userSpaceOnUse" x1="2900.52" y1="135.3353" x2="2877.1855" y2="237.7483" gradientTransform="matrix(0.9847 -0.1742 -0.1742 -0.9847 -2508.5759 975.8016)">
						<stop  offset="0" style="stop-color:#5708A8;stop-opacity:0.1"/>
						<stop  offset="1" style="stop-color:#0082A8"/>
					</linearGradient>
					<path style="fill:url(#SVGID_9_);" d="M283.7,240.9L283.7,240.9c0,0-8.7,23.3,8.1,33.7c4.7,2.6-1.2,10.4,4.3,13.9
						c8.8,5.2,15.5,19.6,12.6,30.2c-3,12.5-8.2,26-4.4,37.9l24.9-73.8L283.7,240.9z"/>
					
						<linearGradient id="SVGID_10_" gradientUnits="userSpaceOnUse" x1="2870.7834" y1="103.7361" x2="2879.7896" y2="169.3569" gradientTransform="matrix(0.9847 -0.1742 -0.1742 -0.9847 -2508.5759 975.8016)">
						<stop  offset="0" style="stop-color:#5708A8;stop-opacity:0.1"/>
						<stop  offset="1" style="stop-color:#0082A8"/>
					</linearGradient>
					<path class="st19" d="M311.5,308l6.3-32.1l-42.5,4.2l29.7,79.4"/>
					
						<linearGradient id="SVGID_11_" gradientUnits="userSpaceOnUse" x1="2885.4482" y1="120.9177" x2="2908.5688" y2="189.6251" gradientTransform="matrix(0.9847 -0.1742 -0.1742 -0.9847 -2508.5759 975.8016)">
						<stop  offset="0" style="stop-color:#5708A8;stop-opacity:0.1"/>
						<stop  offset="1" style="stop-color:#0082A8"/>
					</linearGradient>
					<polygon style="fill:url(#SVGID_11_);" points="318.5,277 304.3,357.4 317.8,276 329.3,283.5 					"/>
					
						<linearGradient id="SVGID_12_" gradientUnits="userSpaceOnUse" x1="2870.2463" y1="131.9803" x2="2871.6379" y2="209.3818" gradientTransform="matrix(0.9847 -0.1742 -0.1742 -0.9847 -2508.5759 975.8016)">
						<stop  offset="0" style="stop-color:#5708A8;stop-opacity:0.1"/>
						<stop  offset="1" style="stop-color:#0082A8"/>
					</linearGradient>
					<polygon class="st22" points="276.4,278.9 283.8,241.5 274.4,279.5 252.7,295.3 274.2,281.2 304.3,357.4 275.8,280.7 
						317.8,276 					"/>
					<line class="st21" x1="317.8" y1="276" x2="304.3" y2="357.4"/>
				</g>
			</g>
		</g>
	</g>
</g>
<g class="st34">
	<g id="benefits_5_">
		<g>
			<g>
				<g>
					<path class="st3" d="M462.8,223.6c0,0,43.4-24.3,66.6-74.3l6.6-0.8c14.4,8,43.1,26.6,61.3,29.9c0,0,12.7,108-40.8,163.1
						C556.5,341.4,474.1,322.3,462.8,223.6z"/>
					
						<linearGradient id="SVGID_13_" gradientUnits="userSpaceOnUse" x1="2982.1489" y1="1030.3524" x2="3125.5828" y2="1030.3524" gradientTransform="matrix(0.9935 -0.1136 -0.1136 -0.9935 -2372.7241 1617.9806)">
						<stop  offset="0" style="stop-color:#5708A8;stop-opacity:0.1"/>
						<stop  offset="1" style="stop-color:#0082A8"/>
					</linearGradient>
					<path class="st23" d="M469.6,224.5c0,0,43.2-26.1,66.4-76.1c0,0,49.5,28.9,73,33.2c0,0,12.7,108-40.8,163.1
						C568.2,344.7,482,333.1,469.6,224.5z"/>
					
						<linearGradient id="SVGID_14_" gradientUnits="userSpaceOnUse" x1="2981.3225" y1="1025.5978" x2="3080.7754" y2="1031.4989" gradientTransform="matrix(0.9935 -0.1136 -0.1136 -0.9935 -2372.7241 1617.9806)">
						<stop  offset="0" style="stop-color:#5708A8;stop-opacity:0.1"/>
						<stop  offset="1" style="stop-color:#0082A8"/>
					</linearGradient>
					<path class="st24" d="M469.6,224.5c0,0,43.3-26,66.4-76.1c0,0,6.7,20.1,8.6,26.9c27.5,98.6,23.6,169.3,23.6,169.3
						S480.3,331.9,469.6,224.5z"/>
					<path class="st6" d="M496.7,230.2c0,0,31.2-18.8,47.9-54.9c0,0,35.7,20.9,52.7,23.9c0,0,9.2,77.9-29.4,117.6
						C567.8,316.9,505.6,308.5,496.7,230.2z"/>
					<path class="st7" d="M567.8,316.9c-9.9-1.7-19.4-5.6-28-10.7c-8.7-5.3-16.3-12-22.6-19.9c-6.3-8-11.3-16.9-14.9-26.4
						c-3.5-9.5-6-19.4-7.2-29.5l0,0l-0.1-1l0.8-0.5c5.2-3.2,10.1-6.8,14.7-10.7c4.7-3.9,9.1-8.2,13.2-12.7c2.1-2.2,4-4.6,6-6.9
						c1.8-2.4,3.8-4.8,5.5-7.4c3.5-5,6.6-10.3,9.4-15.8c-2.5,5.6-5.4,11.1-8.7,16.3c-1.6,2.6-3.4,5.1-5.2,7.7
						c-1.9,2.4-3.7,4.9-5.8,7.3c-4,4.8-8.3,9.2-12.8,13.4c-4.6,4.2-9.4,8.1-14.6,11.6l0.7-1.5l0,0c1,9.9,3.1,19.6,6.3,29
						c3.2,9.4,7.9,18.3,13.9,26.2c6,8,13.5,14.8,21.9,20.2C548.7,311,558,314.9,567.8,316.9z"/>
				</g>
				<polygon class="st8" points="552.4,211.5 532.8,248.6 567.5,291.1 585.6,238.1 				"/>
				<g>
					
						<linearGradient id="SVGID_15_" gradientUnits="userSpaceOnUse" x1="255.9714" y1="303.1229" x2="305.3717" y2="303.1229" gradientTransform="matrix(-0.9803 0.1977 0.1977 0.9803 774.0995 -101.8495)">
						<stop  offset="0" style="stop-color:#5708A8;stop-opacity:0.1"/>
						<stop  offset="1" style="stop-color:#0082A8"/>
					</linearGradient>
					<polygon class="st25" points="552.3,213.8 533.2,248.6 567.1,287.4 581.9,239.9 					"/>
					
						<linearGradient id="SVGID_16_" gradientUnits="userSpaceOnUse" x1="3142.2437" y1="149.4746" x2="3142.2437" y2="212.9373" gradientTransform="matrix(0.9803 -0.1977 -0.1977 -0.9803 -2486.5823 1047.1029)">
						<stop  offset="0" style="stop-color:#5708A8;stop-opacity:0.1"/>
						<stop  offset="1" style="stop-color:#0082A8"/>
					</linearGradient>
					<polygon class="st26" points="551.9,214.9 532.9,249.7 566.8,288.5 581.6,241 					"/>
					
						<linearGradient id="SVGID_17_" gradientUnits="userSpaceOnUse" x1="3157.7004" y1="201.3223" x2="3154.583" y2="199.2667" gradientTransform="matrix(0.9803 -0.1977 -0.1977 -0.9803 -2486.5823 1047.1029)">
						<stop  offset="0" style="stop-color:#5708A8;stop-opacity:0.1"/>
						<stop  offset="1" style="stop-color:#0082A8"/>
					</linearGradient>
					<polygon class="st27" points="574.2,236.2 581.6,240.8 552,214.7 					"/>
					
						<linearGradient id="SVGID_18_" gradientUnits="userSpaceOnUse" x1="3126.4849" y1="211.5612" x2="3132.7046" y2="193.2817" gradientTransform="matrix(0.9803 -0.1977 -0.1977 -0.9803 -2486.5823 1047.1029)">
						<stop  offset="0" style="stop-color:#5708A8;stop-opacity:0.1"/>
						<stop  offset="1" style="stop-color:#0082A8"/>
					</linearGradient>
					<polygon class="st28" points="533,249.5 547.1,239.5 552,214.7 					"/>
					
						<linearGradient id="SVGID_19_" gradientUnits="userSpaceOnUse" x1="3154.8208" y1="163.4826" x2="3150.1711" y2="165.9704" gradientTransform="matrix(0.9803 -0.1977 -0.1977 -0.9803 -2486.5823 1047.1029)">
						<stop  offset="0" style="stop-color:#5708A8;stop-opacity:0.1"/>
						<stop  offset="1" style="stop-color:#0082A8"/>
					</linearGradient>
					<polygon class="st29" points="574.2,236.2 566.8,288.3 581.6,240.8 					"/>
					
						<linearGradient id="SVGID_20_" gradientUnits="userSpaceOnUse" x1="3146.074" y1="215.8457" x2="3147.1206" y2="189.9737" gradientTransform="matrix(0.9803 -0.1977 -0.1977 -0.9803 -2486.5823 1047.1029)">
						<stop  offset="0" style="stop-color:#5708A8;stop-opacity:0.1"/>
						<stop  offset="1" style="stop-color:#0082A8"/>
					</linearGradient>
					<polygon class="st30" points="552,214.7 547.1,239.5 574.2,236.2 					"/>
					<path class="st15" d="M533,249.5l16.3,18.7c-8.3-11.8-2.1-28.7-2.1-28.7L533,249.5z"/>
					
						<linearGradient id="SVGID_21_" gradientUnits="userSpaceOnUse" x1="3157.7527" y1="150.6543" x2="3142.8711" y2="215.9677" gradientTransform="matrix(0.9803 -0.1977 -0.1977 -0.9803 -2486.5823 1047.1029)">
						<stop  offset="0" style="stop-color:#5708A8;stop-opacity:0.1"/>
						<stop  offset="1" style="stop-color:#0082A8"/>
					</linearGradient>
					<path class="st31" d="M551.9,214.4L551.9,214.4c0,0-5.2,15,5.7,21.4c3,1.6-0.6,6.6,2.9,8.8c5.7,3.2,10.2,12.2,8.5,19.1
						c-1.7,8-4.8,16.7-2.2,24.2l14.8-47.4L551.9,214.4z"/>
					
						<linearGradient id="SVGID_22_" gradientUnits="userSpaceOnUse" x1="3138.7881" y1="130.502" x2="3144.5317" y2="172.3514" gradientTransform="matrix(0.9803 -0.1977 -0.1977 -0.9803 -2486.5823 1047.1029)">
						<stop  offset="0" style="stop-color:#5708A8;stop-opacity:0.1"/>
						<stop  offset="1" style="stop-color:#0082A8"/>
					</linearGradient>
					<path class="st32" d="M570.7,256.7l3.5-20.5l-27.1,3.3l20.1,50.2"/>
					
						<linearGradient id="SVGID_23_" gradientUnits="userSpaceOnUse" x1="3148.1406" y1="141.4595" x2="3162.8857" y2="185.2774" gradientTransform="matrix(0.9803 -0.1977 -0.1977 -0.9803 -2486.5823 1047.1029)">
						<stop  offset="0" style="stop-color:#5708A8;stop-opacity:0.1"/>
						<stop  offset="1" style="stop-color:#0082A8"/>
					</linearGradient>
					<polygon class="st33" points="574.6,236.9 566.8,288.3 574.2,236.2 581.6,240.8 					"/>
					
						<linearGradient id="SVGID_24_" gradientUnits="userSpaceOnUse" x1="3138.4456" y1="148.5146" x2="3139.333" y2="197.8771" gradientTransform="matrix(0.9803 -0.1977 -0.1977 -0.9803 -2486.5823 1047.1029)">
						<stop  offset="0" style="stop-color:#5708A8;stop-opacity:0.1"/>
						<stop  offset="1" style="stop-color:#0082A8"/>
					</linearGradient>
					<polygon class="st35" points="547.8,238.7 552,214.7 546.5,239.2 533,249.5 546.5,240.2 566.8,288.3 547.5,239.9 574.2,236.2 
											"/>
					<line class="st21" x1="574.2" y1="236.2" x2="566.8" y2="288.3"/>
				</g>
			</g>
		</g>
	</g>
</g>
<g class="st47">
	<g id="benefits_2_">
		<g>
			<g>
				<g>
					<path class="st3" d="M425.6,384.7c0,0,21.4-11.4,33.2-35.6l3.2-0.3c6.9,4.1,20.8,13.4,29.6,15.1c0,0,5.2,52.7-21.5,79
						C470.1,443,430.1,432.9,425.6,384.7z"/>
					
						<linearGradient id="SVGID_25_" gradientUnits="userSpaceOnUse" x1="2928.8403" y1="894.2802" x2="2998.7263" y2="894.2802" gradientTransform="matrix(0.9956 -9.382340e-02 -9.382340e-02 -0.9956 -2401.6824 1565.5693)">
						<stop  offset="0" style="stop-color:#5708A8;stop-opacity:0.1"/>
						<stop  offset="1" style="stop-color:#0082A8"/>
					</linearGradient>
					<path class="st36" d="M428.9,385.3c0,0,21.3-12.3,33.1-36.4c0,0,23.8,14.6,35.3,16.9c0,0,5.2,52.7-21.5,79
						C475.8,444.8,433.9,438.2,428.9,385.3z"/>
					
						<linearGradient id="SVGID_26_" gradientUnits="userSpaceOnUse" x1="2928.4377" y1="891.9636" x2="2976.8948" y2="894.8387" gradientTransform="matrix(0.9956 -9.382340e-02 -9.382340e-02 -0.9956 -2401.6824 1565.5693)">
						<stop  offset="0" style="stop-color:#5708A8;stop-opacity:0.1"/>
						<stop  offset="1" style="stop-color:#0082A8"/>
					</linearGradient>
					<path class="st37" d="M428.9,385.3c0,0,21.3-12.2,33.1-36.4c0,0,3.1,9.9,3.9,13.2c12.4,48.3,9.9,82.7,9.9,82.7
						S433.1,437.7,428.9,385.3z"/>
					<path class="st6" d="M442.1,388.3c0,0,15.4-8.8,23.9-26.3c0,0,17.2,10.5,25.4,12.2c0,0,3.7,38-15.5,57
						C475.9,431.2,445.7,426.5,442.1,388.3z"/>
					<path class="st7" d="M475.9,431.2c-4.8-0.9-9.4-2.9-13.5-5.5c-4.2-2.6-7.8-6-10.8-9.9c-3-3.9-5.4-8.3-7-13
						c-1.6-4.7-2.7-9.5-3.2-14.4l0,0l0-0.5l0.4-0.2c2.5-1.5,5-3.2,7.3-5.1c2.3-1.9,4.5-3.9,6.6-6c1.1-1.1,2-2.2,3-3.3
						c0.9-1.2,1.9-2.3,2.7-3.5c1.8-2.4,3.3-5,4.7-7.6c-1.3,2.7-2.8,5.3-4.4,7.8c-0.8,1.3-1.7,2.5-2.6,3.7c-0.9,1.2-1.9,2.4-2.9,3.5
						c-2,2.3-4.1,4.4-6.4,6.4c-2.3,2-4.7,3.9-7.2,5.5l0.4-0.7l0,0c0.4,4.8,1.3,9.6,2.8,14.2c1.5,4.6,3.7,9,6.5,12.9
						c2.9,3.9,6.4,7.3,10.5,10C466.6,428.1,471.1,430.1,475.9,431.2z"/>
				</g>
				<polygon class="st8" points="469.4,379.7 459.5,397.6 476,418.6 485.3,393 				"/>
				<g>
					
						<linearGradient id="SVGID_27_" gradientUnits="userSpaceOnUse" x1="376.9279" y1="427.917" x2="400.9975" y2="427.917" gradientTransform="matrix(-0.984 0.1782 0.1782 0.984 778.6523 -91.4717)">
						<stop  offset="0" style="stop-color:#5708A8;stop-opacity:0.1"/>
						<stop  offset="1" style="stop-color:#0082A8"/>
					</linearGradient>
					<polygon class="st38" points="469.3,380.8 459.7,397.6 475.8,416.8 483.5,393.8 					"/>
					
						<linearGradient id="SVGID_28_" gradientUnits="userSpaceOnUse" x1="3034.2305" y1="39.6253" x2="3034.2305" y2="70.5465" gradientTransform="matrix(0.984 -0.1782 -0.1782 -0.984 -2504.189 992.5445)">
						<stop  offset="0" style="stop-color:#5708A8;stop-opacity:0.1"/>
						<stop  offset="1" style="stop-color:#0082A8"/>
					</linearGradient>
					<polygon class="st39" points="469.1,381.4 459.5,398.1 475.6,417.4 483.3,394.4 					"/>
					
						<linearGradient id="SVGID_29_" gradientUnits="userSpaceOnUse" x1="3041.7615" y1="64.8873" x2="3040.2427" y2="63.8858" gradientTransform="matrix(0.984 -0.1782 -0.1782 -0.984 -2504.189 992.5445)">
						<stop  offset="0" style="stop-color:#5708A8;stop-opacity:0.1"/>
						<stop  offset="1" style="stop-color:#0082A8"/>
					</linearGradient>
					<polygon class="st40" points="479.8,392 483.3,394.3 469.1,381.3 					"/>
					
						<linearGradient id="SVGID_30_" gradientUnits="userSpaceOnUse" x1="3026.5522" y1="69.8761" x2="3029.5828" y2="60.9696" gradientTransform="matrix(0.984 -0.1782 -0.1782 -0.984 -2504.189 992.5445)">
						<stop  offset="0" style="stop-color:#5708A8;stop-opacity:0.1"/>
						<stop  offset="1" style="stop-color:#0082A8"/>
					</linearGradient>
					<polygon class="st41" points="459.5,398 466.5,393.3 469.1,381.3 					"/>
					
						<linearGradient id="SVGID_31_" gradientUnits="userSpaceOnUse" x1="3040.3584" y1="46.4505" x2="3038.093" y2="47.6626" gradientTransform="matrix(0.984 -0.1782 -0.1782 -0.984 -2504.189 992.5445)">
						<stop  offset="0" style="stop-color:#5708A8;stop-opacity:0.1"/>
						<stop  offset="1" style="stop-color:#0082A8"/>
					</linearGradient>
					<polygon class="st42" points="479.8,392 475.7,417.3 483.3,394.3 					"/>
					
						<linearGradient id="SVGID_32_" gradientUnits="userSpaceOnUse" x1="3036.0967" y1="71.9636" x2="3036.6067" y2="59.3578" gradientTransform="matrix(0.984 -0.1782 -0.1782 -0.984 -2504.189 992.5445)">
						<stop  offset="0" style="stop-color:#5708A8;stop-opacity:0.1"/>
						<stop  offset="1" style="stop-color:#0082A8"/>
					</linearGradient>
					<polygon class="st43" points="469.1,381.3 466.5,393.3 479.8,392 					"/>
					<path class="st15" d="M459.5,398l7.8,9.3c-3.9-5.8-0.8-14-0.8-14L459.5,398z"/>
					
						<linearGradient id="SVGID_33_" gradientUnits="userSpaceOnUse" x1="3041.7871" y1="40.2" x2="3034.5361" y2="72.0231" gradientTransform="matrix(0.984 -0.1782 -0.1782 -0.984 -2504.189 992.5445)">
						<stop  offset="0" style="stop-color:#5708A8;stop-opacity:0.1"/>
						<stop  offset="1" style="stop-color:#0082A8"/>
					</linearGradient>
					<path class="st44" d="M469.1,381.1L469.1,381.1c0,0-2.7,7.2,2.5,10.5c1.5,0.8-0.4,3.2,1.3,4.3c2.7,1.6,4.8,6.1,4,9.4
						c-0.9,3.9-2.5,8.1-1.3,11.8l7.7-23L469.1,381.1z"/>
					
						<linearGradient id="SVGID_34_" gradientUnits="userSpaceOnUse" x1="3032.5469" y1="30.3811" x2="3035.3455" y2="50.7716" gradientTransform="matrix(0.984 -0.1782 -0.1782 -0.984 -2504.189 992.5445)">
						<stop  offset="0" style="stop-color:#5708A8;stop-opacity:0.1"/>
						<stop  offset="1" style="stop-color:#0082A8"/>
					</linearGradient>
					<path class="st45" d="M477.8,401.9l1.9-10l-13.2,1.4l9.3,24.6"/>
					
						<linearGradient id="SVGID_35_" gradientUnits="userSpaceOnUse" x1="3037.1038" y1="35.72" x2="3044.2881" y2="57.0696" gradientTransform="matrix(0.984 -0.1782 -0.1782 -0.984 -2504.189 992.5445)">
						<stop  offset="0" style="stop-color:#5708A8;stop-opacity:0.1"/>
						<stop  offset="1" style="stop-color:#0082A8"/>
					</linearGradient>
					<polygon class="st46" points="480,392.3 475.7,417.3 479.8,392 483.3,394.3 					"/>
					
						<linearGradient id="SVGID_36_" gradientUnits="userSpaceOnUse" x1="3032.3799" y1="39.1575" x2="3032.8125" y2="63.2087" gradientTransform="matrix(0.984 -0.1782 -0.1782 -0.984 -2504.189 992.5445)">
						<stop  offset="0" style="stop-color:#5708A8;stop-opacity:0.1"/>
						<stop  offset="1" style="stop-color:#0082A8"/>
					</linearGradient>
					<polygon class="st48" points="466.9,392.9 469.1,381.3 466.3,393.1 459.5,398 466.2,393.6 475.7,417.3 466.7,393.5 479.8,392 
											"/>
					<line class="st21" x1="479.8" y1="392" x2="475.7" y2="417.3"/>
				</g>
			</g>
		</g>
	</g>
</g>
</svg>
